<svg xmlns="http://www.w3.org/2000/svg" viewBox="0 0 64 64"><style>.i{fill:#8250df}.n{stroke:#8250df}@media(prefers-color-scheme:dark){.i{fill:#a685f5}.n{stroke:#a685f5}}</style><path class="n" d="M22 21C22 33 32 33 32 46" fill="none" stroke-width="6" stroke-linecap="round"/><path class="i" fill-rule="evenodd" d="M10 45C16 41 26 41 32 45C38 41 48 41 54 45L54 55C48 51 38 51 32 55C26 51 16 51 10 55Z M30.75 45h2.5v10h-2.5Z"/><path class="i" fill-rule="evenodd" d="M30 13a8 8 0 1 1-16 0a8 8 0 1 1 16 0Z M26 11a2 2 0 1 1-4 0a2 2 0 1 1 4 0Z"/><path class="i" d="M28.5 11L39 16L28 18Z"/></svg>
